<svg xmlns="http://www.w3.org/2000/svg" viewBox="0 0 111.04 48.5"><defs><style>.cls-1{fill:none;}.cls-2{fill:#fff;}.cls-3{fill:#7f47dd;}.cls-4{fill:#a279e6;}</style></defs><title>LOGO_PGMMiddel 37PAARS</title><g id="Laag_2" data-name="Laag 2"><g id="Laag_1-2" data-name="Laag 1"><rect class="cls-1" width="111.04" height="48.5"/><path class="cls-2" d="M50.16,21.27a2.34,2.34,0,0,1,.87,1,3.84,3.84,0,0,1,0,3.07,2.37,2.37,0,0,1-.87,1,2.27,2.27,0,0,1-1.24.35,2.08,2.08,0,0,1-1.11-.29,1.69,1.69,0,0,1-.67-.8v3.7H45.41V21h1.73v1a1.64,1.64,0,0,1,.67-.8,2.08,2.08,0,0,1,1.11-.29A2.19,2.19,0,0,1,50.16,21.27ZM47.47,22.8a1.39,1.39,0,0,0-.34,1,1.43,1.43,0,0,0,.34,1,1.21,1.21,0,0,0,.9.37,1.17,1.17,0,0,0,.89-.36,1.46,1.46,0,0,0,.33-1,1.45,1.45,0,0,0-.33-1,1.28,1.28,0,0,0-1.79,0Z"/><path class="cls-2" d="M55.49,21.21a1.78,1.78,0,0,1,.68.8V21h1.71v5.59a3.24,3.24,0,0,1-.3,1.41,2.3,2.3,0,0,1-.93,1,2.94,2.94,0,0,1-1.55.38,3.2,3.2,0,0,1-2-.6,2.46,2.46,0,0,1-.91-1.63h1.7a.85.85,0,0,0,.37.53,1.3,1.3,0,0,0,.75.2,1.22,1.22,0,0,0,.86-.31,1.29,1.29,0,0,0,.33-1v-1a1.83,1.83,0,0,1-.68.8,2.11,2.11,0,0,1-1.11.29,2.31,2.31,0,0,1-1.25-.35,2.42,2.42,0,0,1-.86-1,3.84,3.84,0,0,1,0-3.07,2.39,2.39,0,0,1,.86-1,2.22,2.22,0,0,1,1.25-.35A2.11,2.11,0,0,1,55.49,21.21ZM54,22.79a1.45,1.45,0,0,0-.34,1,1.47,1.47,0,0,0,.34,1,1.15,1.15,0,0,0,.89.36,1.19,1.19,0,0,0,.89-.37,1.43,1.43,0,0,0,.35-1,1.4,1.4,0,0,0-.35-1,1.27,1.27,0,0,0-1.78,0Z"/><path class="cls-2" d="M68,21.57a2.48,2.48,0,0,1,.59,1.77v3.27H66.86V23.55a1.13,1.13,0,0,0-.28-.83,1.19,1.19,0,0,0-1.59,0,1.27,1.27,0,0,0-.3.9v3H63V23.55a1.13,1.13,0,0,0-.29-.83,1,1,0,0,0-.77-.3,1.09,1.09,0,0,0-.82.31,1.25,1.25,0,0,0-.3.9v3H59.07V21h1.72v1a1.65,1.65,0,0,1,.68-.75,2.07,2.07,0,0,1,1.07-.27,2.25,2.25,0,0,1,1.14.29,1.91,1.91,0,0,1,.75.86,2.22,2.22,0,0,1,.8-.84,2.08,2.08,0,0,1,1.12-.31A2.11,2.11,0,0,1,68,21.57Z"/><path class="cls-2" d="M70.91,25.53v1.08H69.8V25.53Z"/><path class="cls-2" d="M75.59,21.41a2.14,2.14,0,0,1,.78,1.08V21.08h.91V26.7A2.76,2.76,0,0,1,77,28.06a2.3,2.3,0,0,1-.91.92,2.69,2.69,0,0,1-1.36.34,2.92,2.92,0,0,1-1.82-.54A2.35,2.35,0,0,1,72,27.32h.9a1.57,1.57,0,0,0,.61.87,2,2,0,0,0,1.16.32A1.7,1.7,0,0,0,75.88,28a1.8,1.8,0,0,0,.49-1.33V25.2a2.07,2.07,0,0,1-.78,1.07,2.29,2.29,0,0,1-1.37.41,2.61,2.61,0,0,1-1.31-.34,2.41,2.41,0,0,1-.9-1,3.19,3.19,0,0,1-.33-1.5A3.26,3.26,0,0,1,72,22.34a2.41,2.41,0,0,1,.9-1A2.51,2.51,0,0,1,74.22,21,2.29,2.29,0,0,1,75.59,21.41Zm-2.46.95a2.09,2.09,0,0,0-.51,1.49,2.06,2.06,0,0,0,.51,1.48,1.77,1.77,0,0,0,1.35.54,1.88,1.88,0,0,0,1-.25,1.84,1.84,0,0,0,.67-.71,2.48,2.48,0,0,0,0-2.13,1.77,1.77,0,0,0-.67-.71,2,2,0,0,0-1-.25A1.77,1.77,0,0,0,73.13,22.36Z"/><path class="cls-2" d="M83.79,24H79.37a1.94,1.94,0,0,0,.54,1.42,1.77,1.77,0,0,0,1.24.47,1.83,1.83,0,0,0,1.11-.33,1.42,1.42,0,0,0,.55-.91h1a2.34,2.34,0,0,1-1.35,1.74,3.13,3.13,0,0,1-1.25.25,2.94,2.94,0,0,1-1.41-.34,2.41,2.41,0,0,1-1-1,3.08,3.08,0,0,1-.35-1.5,3.15,3.15,0,0,1,.35-1.51,2.41,2.41,0,0,1,1-1A2.83,2.83,0,0,1,81.19,21a2.78,2.78,0,0,1,1.41.34,2.37,2.37,0,0,1,.91.92,2.58,2.58,0,0,1,.32,1.27A2.47,2.47,0,0,1,83.79,24ZM82.7,22.57a1.5,1.5,0,0,0-.63-.62,2,2,0,0,0-.88-.2,1.83,1.83,0,0,0-1.27.47,1.87,1.87,0,0,0-.55,1.38H82.9A1.83,1.83,0,0,0,82.7,22.57Z"/><path class="cls-2" d="M89.5,21.61a2.5,2.5,0,0,1,.59,1.78v3.22h-.91V23.47a1.76,1.76,0,0,0-.43-1.26,1.49,1.49,0,0,0-1.15-.45,1.57,1.57,0,0,0-1.2.49,2,2,0,0,0-.46,1.43v2.93H85V21.08h.91v1.31a1.87,1.87,0,0,1,.75-1A2.21,2.21,0,0,1,87.94,21,2,2,0,0,1,89.5,21.61Z"/><path class="cls-2" d="M94.14,25.8v.81h-.69a1.75,1.75,0,0,1-1.26-.41,1.79,1.79,0,0,1-.42-1.35v-3H91v-.79h.82V19.7h.93v1.38h1.43v.79H92.7v3a1,1,0,0,0,.2.73.89.89,0,0,0,.68.2Z"/><path class="cls-3" d="M25.15,18.62l5.25,3h0l1.63-.88h0l.06-5.81Zm-6.42,4.93v-1.5l-2.92,1.57-.06,5.81,3.86-2.06h0l3-1.61h0Z"/><path class="cls-2" d="M33.23,20.06l.07-7.15-9.37,5-5.12-2.87,0,5.65-4.11,2.2-.08,8.49,5-2.7-.07,7.15,10.79-5.78,6.84,3.84.08-7.56.94-.5V25.5l.08-8.14Zm-1.12-5.18-.06,5.81h0l-1.63.88h0l-5.25-3ZM19.92,21.42V20.08l0-3,2.74,1.54h0l1.21.68,5.27,3-5.33,2.86-3.95-2.22Zm-.3,5.95-3.86,2.06.06-5.81,2.92-1.57v1.5l3.9,2.19h0l-3,1.61ZM36,31.92l-4.47-2.51L36.07,27Zm1-6.78-.13.07-1.22.66-5.33,2.86-1.22.66h0l-8.38,4.5.06-5.82,2.28-1.23.77-.41h0l1.22-.66,5.33-2.86,1.22-.65h0l1.59-.85,3.86-2.07Z"/><polygon class="cls-2" points="23.92 19.27 19.92 21.42 19.93 20.08 22.7 18.59 22.71 18.59 23.92 19.27"/><polygon class="cls-2" points="19.62 27.36 19.62 27.37 15.76 29.43 19.62 27.36"/><polygon class="cls-2" points="32.05 20.7 30.42 21.58 30.41 21.58 30.41 21.57 32.05 20.7"/><path class="cls-3" d="M20,17.05l0,3,2.77-1.49ZM31.55,29.41,36,31.92l0-4.93Z"/><polygon class="cls-3" points="29.19 22.23 23.86 25.09 19.91 22.87 19.92 21.42 23.92 19.27 29.19 22.23"/><path class="cls-4" d="M22.71,18.59h0l-2.77,1.49v1.34l4-2.15Z"/><polygon class="cls-2" points="30.41 21.57 30.41 21.58 30.4 21.58 25.15 18.62 30.41 21.57"/><polygon class="cls-2" points="30.34 28.73 29.12 29.39 29.11 29.39 23.85 26.43 25.07 25.77 30.34 28.73"/><polygon class="cls-2" points="36.89 25.21 35.67 25.87 30.4 22.91 31.62 22.26 31.63 22.26 36.89 25.21"/><path class="cls-3" d="M33.22,21.4l-1.59.85h0l5.26,2.95.13-.07.06-5.81Zm-9.37,5h0l-.77.41-2.28,1.23-.06,5.82,8.38-4.5Z"/><polygon class="cls-3" points="35.67 25.87 30.34 28.73 25.07 25.77 30.4 22.91 35.67 25.87"/><path class="cls-4" d="M25.07,25.77l-1.22.66,5.26,3h0l1.22-.66Zm6.56-3.51h0l-1.22.65,5.27,3,1.22-.66Z"/><path class="cls-2" d="M30.41,21.57h0l1.63-.88Z"/></g></g></svg>