<svg xmlns="http://www.w3.org/2000/svg" viewBox="0 0 21.32 19.01"><defs><style>.cls-1{fill:#a279e6;}.cls-2{fill:#fff;}.cls-3{fill:#8955e0;}</style></defs><title>LOGO_PGM_KLEIN_WIT</title><g id="Laag_2" data-name="Laag 2"><g id="Laag_1-2" data-name="Laag 1"><path class="cls-1" d="M3,8.67,3,7.18H3L.06,8.74,0,14.56l3.86-2.07,3-1.62ZM9.38,3.74l5.26,3h0l1.64-.88h0L16.35,0Z"/><polygon class="cls-2" points="0.06 8.74 2.98 7.17 2.98 7.18 0.06 8.74"/><polygon class="cls-2" points="13.42 7.35 13.43 7.35 13.43 7.36 8.62 9.93 13.42 7.35"/><polygon class="cls-2" points="8.16 4.39 8.16 4.4 4.16 6.54 8.15 4.39 8.16 4.39"/><polygon class="cls-2" points="16.29 5.81 16.29 5.82 14.65 6.7 14.65 6.69 16.29 5.81"/><path class="cls-1" d="M15.79,14.53,20.26,17l0-4.93Z"/><polygon class="cls-3" points="13.42 7.35 8.62 9.93 8.1 10.21 4.14 7.99 4.16 6.54 8.15 4.39 8.16 4.39 8.16 4.4 13.42 7.35"/><path class="cls-1" d="M13.42,7.35,8.62,9.93l4.81-2.57h0Z"/><polygon class="cls-1" points="8.15 4.39 4.16 6.54 4.17 5.2 4.2 2.17 6.94 3.71 8.15 4.39"/><polygon class="cls-2" points="13.43 7.36 13.42 7.35 13.43 7.35 13.43 7.36"/><polygon class="cls-2" points="14.64 6.7 9.38 3.74 14.65 6.69 14.65 6.7 14.64 6.7"/><polygon class="cls-2" points="14.59 13.85 14.58 13.86 12.59 12.73 14.59 13.85"/><polygon class="cls-2" points="19.91 11 14.64 8.04 14.63 8.03 14.64 8.03 19.91 11"/><polygon class="cls-1" points="21.32 4.45 21.26 10.27 21.14 10.34 19.91 11 14.64 8.03 15.85 7.38 15.86 7.38 15.99 7.31 17.45 6.52 21.32 4.45"/><path class="cls-1" d="M15.86,7.37h0L16,7.31Z"/><polygon class="cls-3" points="19.91 11 14.59 13.85 14.58 13.86 12.59 12.73 9.31 10.89 14.63 8.03 14.64 8.03 19.91 11"/><polygon class="cls-1" points="14.58 13.86 13.36 14.51 4.97 19.01 5.03 13.19 8.08 11.55 8.09 11.55 9.3 10.89 9.31 10.89 12.59 12.73 14.58 13.86"/><path class="cls-2" d="M14.63,8,9.31,10.89,14.64,8h0Zm1.23-.66h0L16,7.31ZM14.63,8,9.31,10.89,14.64,8h0Zm0,0L9.31,10.89,14.64,8h0Z"/></g></g></svg>