<?xml version="1.0" encoding="utf-8"?>
<!-- Generator: Adobe Illustrator 24.0.0, SVG Export Plug-In . SVG Version: 6.00 Build 0)  -->
<svg version="1.1" id="Laag_1" xmlns="http://www.w3.org/2000/svg" xmlns:xlink="http://www.w3.org/1999/xlink" x="0px" y="0px"
	 viewBox="0 0 110.3 48.5" style="enable-background:new 0 0 110.3 48.5;" xml:space="preserve">
<style type="text/css">
	.st0{fill:#7F47DD;}
	.st1{fill:#FFFFFF;}
	.st2{fill:#A279E6;}
</style>
<title>LOGO_GRADUAAT_PROGRAMMERENMiddel 38PAARS</title>
<path class="st0" d="M10.5,18.8l5.2,3l0,0l1.6-0.9l0,0l0.1-5.8L10.5,18.8z M4.1,23.8v-1.5l-2.9,1.6l-0.1,5.8L5,27.6l0,0L8,26l0,0
	L4.1,23.8z"/>
<path class="st1" d="M18.6,20.3l0.1-7.1l-9.4,5l-5.1-2.9v5.7l-4.1,2.2L0,31.6l5-2.7l-0.1,7.2l10.8-5.8l6.8,3.8l0.1-7.6l0.9-0.5v-0.4
	l0.1-8.1L18.6,20.3z M17.5,15.1l-0.1,5.8l0,0l-1.6,0.9l0,0l-5.2-3L17.5,15.1z M5.3,21.6v-1.3v-3L8,18.8l0,0l1.2,0.7l5.3,3l-5.3,2.9
	l-4-2.2L5.3,21.6z M5,27.6l-3.9,2.1l0.1-5.8l2.9-1.6v1.5L8,26l0,0L5,27.6L5,27.6z M21.4,32.1l-4.5-2.5l4.5-2.4V32.1z M22.4,25.4
	l-0.1,0.1l-1.2,0.7L15.7,29l-1.2,0.7l0,0l-8.4,4.5l0.1-5.8l2.2-1.3l0.8-0.4l0,0l1.2-0.6l5.3-2.9l1.2-0.6l0,0l1.6-0.9l3.9-2.1V25.4z"
	/>
<polygon class="st1" points="9.3,19.5 5.3,21.6 5.3,20.3 8.1,18.8 8.1,18.8 "/>
<polygon class="st1" points="5,27.6 5,27.6 1.1,29.6 "/>
<polygon class="st1" points="17.4,20.9 15.8,21.8 15.8,21.8 15.8,21.8 "/>
<path class="st0" d="M5.3,17.3v3l2.8-1.5L5.3,17.3z M16.9,29.6l4.5,2.5v-4.9L16.9,29.6z"/>
<polygon class="st0" points="14.6,22.5 9.2,25.3 5.3,23.1 5.3,21.6 9.3,19.5 "/>
<path class="st2" d="M8.1,18.8L8.1,18.8l-2.8,1.5v1.3l4-2.1L8.1,18.8z"/>
<polygon class="st1" points="15.8,21.8 15.8,21.8 15.8,21.8 10.5,18.8 "/>
<polygon class="st1" points="15.7,29 14.5,29.6 14.5,29.6 9.2,26.6 10.4,26 "/>
<polygon class="st1" points="22.3,25.4 21,26.1 15.8,23.1 17,22.5 17,22.5 "/>
<path class="st0" d="M18.6,21.6L17,22.5l0,0l5.3,3l0.1-0.1l0.1-5.8L18.6,21.6z M9.2,26.6L9.2,26.6L8.5,27l-2.3,1.2l-0.1,5.8l8.4-4.5
	L9.2,26.6z"/>
<polygon class="st0" points="21,26.1 15.7,29 10.4,26 15.8,23.1 "/>
<path class="st2" d="M10.4,26l-1.2,0.7l5.3,3l0,0l1.3-0.7L10.4,26z M17,22.5L17,22.5l-1.2,0.6l5.3,3l1.2-0.7L17,22.5z"/>
<path class="st1" d="M15.8,21.8L15.8,21.8l1.6-0.9L15.8,21.8z"/>
<path class="st1" d="M35.5,26c0.4,0.2,0.7,0.6,0.9,1c0.4,1,0.4,2,0,3c-0.2,0.4-0.5,0.8-0.9,1c-0.4,0.2-0.8,0.4-1.2,0.4
	c-0.4,0-0.8-0.1-1.1-0.3c-0.3-0.2-0.5-0.5-0.7-0.8V34h-1.7v-8.3h1.7v1c0.1-0.3,0.4-0.6,0.7-0.8c0.3-0.2,0.7-0.3,1.1-0.3
	C34.8,25.6,35.2,25.8,35.5,26z M32.9,27.5c-0.2,0.3-0.4,0.6-0.3,1c0,0.4,0.1,0.7,0.3,1c0.5,0.5,1.3,0.5,1.8,0c0.2-0.3,0.4-0.6,0.3-1
	c0-0.4-0.1-0.7-0.3-1C34.1,27,33.4,27,32.9,27.5z"/>
<path class="st1" d="M40.2,25.9c0.3-0.2,0.7-0.3,1.1-0.3v1.8h-0.5c-0.4,0-0.8,0.1-1.1,0.3c-0.3,0.2-0.4,0.6-0.4,1v2.6h-1.7v-5.6h1.7
	v1.1C39.6,26.4,39.8,26.1,40.2,25.9z"/>
<path class="st1" d="M46.1,26c0.4,0.2,0.8,0.6,1,1c0.5,1,0.5,2.1,0,3.1c-0.2,0.4-0.6,0.8-1,1c-0.9,0.5-2.1,0.5-3,0
	c-0.4-0.2-0.8-0.6-1-1c-0.5-1-0.5-2.1,0-3.1c0.2-0.4,0.6-0.8,1-1C44.1,25.5,45.2,25.5,46.1,26z M43.8,27.5c-0.5,0.6-0.5,1.4,0,2.1
	c0.2,0.2,0.5,0.4,0.8,0.4c0.3,0,0.6-0.1,0.8-0.4c0.4-0.6,0.4-1.4,0-2.1c-0.2-0.2-0.5-0.4-0.8-0.4C44.3,27.1,44,27.2,43.8,27.5
	L43.8,27.5z"/>
<path class="st1" d="M51.7,25.9c0.3,0.2,0.5,0.5,0.7,0.8v-1h1.7v5.6c0,0.5-0.1,1-0.3,1.4c-0.2,0.4-0.5,0.8-0.9,1
	c-0.5,0.3-1,0.4-1.5,0.4c-0.7,0-1.4-0.2-2-0.6c-0.5-0.4-0.8-1-0.9-1.6h1.7c0.1,0.2,0.2,0.4,0.4,0.5c0.2,0.1,0.5,0.2,0.8,0.2
	c0.3,0,0.6-0.1,0.9-0.3c0.2-0.3,0.4-0.6,0.3-1v-1c-0.1,0.3-0.4,0.6-0.7,0.8c-0.3,0.2-0.7,0.3-1.1,0.3c-0.5,0-0.9-0.1-1.3-0.3
	c-0.4-0.2-0.7-0.6-0.9-1c-0.4-1-0.4-2.1,0-3.1c0.2-0.4,0.5-0.8,0.9-1c0.4-0.2,0.8-0.4,1.2-0.4C51,25.6,51.4,25.7,51.7,25.9z
	 M50.2,27.5c-0.2,0.3-0.4,0.6-0.3,1c0,0.4,0.1,0.7,0.3,1c0.5,0.5,1.3,0.5,1.8,0c0.2-0.3,0.4-0.6,0.3-1c0-0.4-0.1-0.7-0.3-1
	C51.5,27,50.7,27,50.2,27.5z"/>
<path class="st1" d="M57.8,25.9c0.3-0.2,0.7-0.3,1.1-0.3v1.8h-0.5c-0.4,0-0.8,0.1-1.1,0.3c-0.3,0.3-0.4,0.6-0.4,1v2.6h-1.7v-5.6H57
	v1.1C57.2,26.4,57.5,26.1,57.8,25.9z"/>
<path class="st1" d="M62.9,25.9c0.3,0.2,0.5,0.5,0.7,0.8v-1h1.7v5.6h-1.7v-1c-0.1,0.3-0.4,0.6-0.7,0.8c-0.3,0.2-0.7,0.3-1.1,0.3
	c-0.4,0-0.9-0.1-1.2-0.4c-0.4-0.2-0.7-0.6-0.9-1c-0.4-1-0.4-2.1,0-3.1c0.2-0.4,0.5-0.8,0.9-1c0.4-0.2,0.8-0.4,1.2-0.4
	C62.2,25.6,62.6,25.7,62.9,25.9z M61.4,27.5c-0.2,0.3-0.4,0.6-0.3,1c0,0.4,0.1,0.7,0.3,1c0.5,0.5,1.3,0.5,1.8,0
	c0.2-0.3,0.4-0.6,0.3-1c0-0.4-0.1-0.7-0.3-1C62.7,27,61.9,27,61.4,27.5z"/>
<path class="st1" d="M75.4,26.2c0.4,0.5,0.6,1.1,0.6,1.8v3.3h-1.7v-3c0-0.3-0.1-0.6-0.3-0.8c-0.2-0.2-0.5-0.3-0.8-0.3
	c-0.3,0-0.6,0.1-0.8,0.3c-0.2,0.2-0.3,0.6-0.3,0.9v3h-1.7v-3.1c0-0.3-0.1-0.6-0.3-0.8c-0.2-0.2-0.5-0.3-0.8-0.3
	c-0.3,0-0.6,0.1-0.8,0.3c-0.2,0.2-0.3,0.6-0.3,0.9v3h-1.8v-5.6h1.7v1c0.1-0.3,0.4-0.6,0.7-0.8c0.3-0.2,0.7-0.3,1.1-0.3
	c0.4,0,0.8,0.1,1.1,0.3c0.3,0.2,0.6,0.5,0.7,0.9c0.2-0.3,0.5-0.6,0.8-0.8c0.3-0.2,0.7-0.3,1.1-0.3C74.4,25.6,75,25.8,75.4,26.2z"/>
<path class="st1" d="M86,26.2c0.4,0.5,0.6,1.1,0.6,1.8v3.3h-1.7v-3.1c0-0.3-0.1-0.6-0.3-0.8c-0.2-0.2-0.5-0.3-0.8-0.3
	c-0.3,0-0.6,0.1-0.8,0.3c-0.2,0.2-0.3,0.6-0.3,0.9v3H81v-3.1c0-0.3-0.1-0.6-0.3-0.8c-0.2-0.2-0.5-0.3-0.8-0.3
	c-0.3,0-0.6,0.1-0.8,0.3c-0.2,0.2-0.3,0.6-0.3,0.9v3h-1.7v-5.6h1.7v1c0.1-0.3,0.4-0.6,0.7-0.8c0.7-0.4,1.5-0.4,2.2,0
	c0.3,0.2,0.6,0.5,0.8,0.9c0.2-0.3,0.5-0.6,0.8-0.8c0.3-0.2,0.7-0.3,1.1-0.3C85,25.6,85.6,25.8,86,26.2z"/>
<path class="st1" d="M93.1,28.8h-3.9c0,0.3,0.1,0.7,0.3,0.9c0.2,0.2,0.5,0.3,0.7,0.3c0.2,0,0.5-0.1,0.6-0.2c0.2-0.1,0.3-0.3,0.3-0.5
	H93c-0.1,0.4-0.2,0.8-0.5,1.1c-0.3,0.3-0.6,0.6-1,0.7c-0.4,0.2-0.8,0.3-1.3,0.3c-0.5,0-1-0.1-1.5-0.4c-0.4-0.2-0.8-0.6-1-1
	c-0.3-0.5-0.4-1-0.4-1.5c0-0.5,0.2-1,0.4-1.5c0.2-0.4,0.6-0.8,1-1c0.5-0.2,1-0.4,1.5-0.4c0.5,0,1,0.1,1.5,0.3c0.4,0.2,0.8,0.6,1,1
	c0.2,0.4,0.4,0.9,0.3,1.4C93.1,28.5,93.1,28.7,93.1,28.8z M91.1,27.2c-0.2-0.2-0.5-0.3-0.8-0.3c-0.3,0-0.6,0.1-0.8,0.3
	c-0.2,0.2-0.4,0.5-0.4,0.8h2.2C91.4,27.8,91.3,27.4,91.1,27.2L91.1,27.2z"/>
<path class="st1" d="M96.6,25.9c0.3-0.2,0.7-0.3,1.1-0.3v1.8h-0.5c-0.4,0-0.8,0.1-1.1,0.3c-0.3,0.3-0.4,0.6-0.4,1v2.6H94v-5.6h1.7
	v1.1C95.9,26.4,96.2,26.1,96.6,25.9z"/>
<path class="st1" d="M103.7,28.8h-3.9c0,0.3,0.1,0.7,0.3,0.9c0.4,0.3,1,0.4,1.4,0.1c0.2-0.1,0.3-0.3,0.3-0.5h1.8
	c-0.1,0.4-0.2,0.8-0.5,1.1c-0.3,0.3-0.6,0.6-1,0.7c-0.9,0.4-1.9,0.4-2.7-0.1c-0.4-0.2-0.8-0.6-1-1c-0.5-1-0.5-2.1,0-3.1
	c0.2-0.4,0.6-0.8,1-1c0.5-0.2,1-0.4,1.5-0.4c0.5,0,1,0.1,1.5,0.3c0.4,0.2,0.8,0.6,1,1c0.2,0.4,0.4,0.9,0.3,1.4
	C103.7,28.5,103.7,28.7,103.7,28.8z M101.7,27.2c-0.2-0.2-0.5-0.3-0.8-0.3c-0.3,0-0.6,0.1-0.8,0.3c-0.2,0.2-0.3,0.5-0.3,0.8h2.2
	C102,27.8,101.9,27.5,101.7,27.2L101.7,27.2z"/>
<path class="st1" d="M109.7,26.3c0.4,0.5,0.6,1.1,0.6,1.8v3.3h-1.7v-3.1c0-0.3-0.1-0.6-0.3-0.9c-0.2-0.2-0.5-0.3-0.8-0.3
	c-0.3,0-0.6,0.1-0.8,0.3c-0.2,0.3-0.3,0.6-0.3,1v3h-1.7v-5.6h1.7v1c0.2-0.3,0.4-0.6,0.7-0.8c0.3-0.2,0.7-0.3,1.1-0.3
	C108.8,25.6,109.3,25.8,109.7,26.3z"/>
<path class="st1" d="M30.9,21.6c-0.4-0.4-0.6-1-0.6-1.6c0-0.6,0.2-1.1,0.6-1.6c0.4-0.4,0.9-0.6,1.5-0.6c0.4,0,0.7,0.1,1,0.3
	c0.3,0.2,0.5,0.4,0.6,0.7v-0.9h0.5v4.4c0,0.5-0.2,1-0.6,1.4c-0.4,0.4-0.9,0.6-1.4,0.5c-0.5,0-1-0.1-1.4-0.4c-0.4-0.2-0.6-0.6-0.7-1
	h0.5c0.1,0.3,0.3,0.5,0.5,0.7c0.3,0.2,0.6,0.3,1,0.3c0.4,0,0.7-0.1,1-0.4c0.3-0.3,0.4-0.7,0.4-1.1v-1.1c-0.1,0.3-0.4,0.5-0.6,0.7
	c-0.3,0.2-0.6,0.3-1,0.3C31.8,22.2,31.3,22,30.9,21.6z M33.5,21.3c0.6-0.7,0.6-1.8,0-2.5c-0.6-0.6-1.6-0.6-2.2,0c0,0,0,0,0,0
	c-0.3,0.3-0.5,0.8-0.5,1.2c0,0.5,0.1,0.9,0.5,1.3c0.6,0.6,1.5,0.7,2.1,0.1C33.5,21.3,33.5,21.3,33.5,21.3L33.5,21.3z"/>
<path class="st1" d="M36.2,17.9v0.7c0.2-0.5,0.8-0.8,1.3-0.8v0.6h-0.1c-0.3,0-0.6,0.1-0.9,0.3c-0.2,0.3-0.3,0.6-0.3,1v2.4h-0.5v-4.2
	H36.2z"/>
<path class="st1" d="M38.7,21.6c-0.4-0.4-0.6-1-0.6-1.6c0-0.6,0.2-1.1,0.6-1.6c0.4-0.4,0.9-0.6,1.5-0.6c0.4,0,0.7,0.1,1,0.3
	c0.3,0.2,0.5,0.4,0.6,0.7v-0.9h0.6v4.2h-0.5v-0.9c-0.1,0.3-0.4,0.5-0.6,0.7c-0.3,0.2-0.6,0.3-1,0.3C39.7,22.2,39.1,22,38.7,21.6z
	 M41.4,21.3c0.6-0.7,0.6-1.8,0-2.5c-0.6-0.6-1.6-0.6-2.2,0c0,0,0,0,0,0c-0.3,0.3-0.5,0.8-0.5,1.2c0,0.5,0.1,0.9,0.5,1.3
	c0.3,0.3,0.7,0.5,1.1,0.5C40.7,21.8,41.1,21.6,41.4,21.3z"/>
<path class="st1" d="M43.8,21.6c-0.4-0.4-0.6-1-0.6-1.6c0-0.6,0.2-1.1,0.6-1.6c0.4-0.4,0.9-0.6,1.5-0.6c0.4,0,0.7,0.1,1,0.3
	c0.3,0.2,0.5,0.4,0.6,0.7v-2.4h0.5v5.7h-0.5v-0.9c-0.1,0.3-0.4,0.5-0.6,0.7c-0.3,0.2-0.6,0.3-1,0.3C44.8,22.2,44.2,22,43.8,21.6z
	 M46.5,21.3c0.6-0.7,0.6-1.8,0-2.5c-0.6-0.6-1.6-0.6-2.2,0c0,0,0,0,0,0c-0.3,0.3-0.5,0.8-0.5,1.2c0,0.5,0.1,0.9,0.5,1.3
	c0.3,0.3,0.7,0.5,1.1,0.5C45.8,21.8,46.2,21.6,46.5,21.3z"/>
<path class="st1" d="M51.7,17.9h0.5v4.2h-0.5v-0.7c-0.3,0.5-0.8,0.8-1.4,0.8c-0.4,0-0.9-0.2-1.2-0.5c-0.3-0.4-0.5-0.8-0.5-1.3v-2.5
	h0.5v2.4c0,0.4,0.1,0.8,0.3,1.1c0.2,0.3,0.6,0.4,0.9,0.4c0.3,0,0.7-0.1,0.9-0.4c0.2-0.3,0.4-0.7,0.3-1.1L51.7,17.9z"/>
<path class="st1" d="M53.7,21.6c-0.4-0.4-0.6-1-0.6-1.6c0-0.6,0.2-1.1,0.6-1.6c0.4-0.4,0.9-0.6,1.5-0.6c0.4,0,0.7,0.1,1,0.3
	c0.3,0.2,0.5,0.4,0.7,0.7v-0.9h0.5v4.2h-0.5v-0.9c-0.1,0.3-0.4,0.5-0.7,0.7c-0.3,0.2-0.6,0.3-1,0.3C54.6,22.2,54.1,22,53.7,21.6z
	 M56.3,21.3c0.6-0.7,0.6-1.8,0-2.5c-0.3-0.3-0.7-0.5-1.1-0.5c-0.4,0-0.8,0.2-1.1,0.5c-0.3,0.3-0.5,0.8-0.5,1.2
	c0,0.5,0.1,0.9,0.5,1.3C54.7,21.9,55.6,21.9,56.3,21.3C56.3,21.3,56.3,21.3,56.3,21.3L56.3,21.3z"/>
<path class="st1" d="M58.8,21.6c-0.4-0.4-0.6-1-0.6-1.6c0-0.6,0.2-1.1,0.6-1.6c0.4-0.4,0.9-0.6,1.5-0.6c0.4,0,0.7,0.1,1,0.3
	c0.3,0.2,0.5,0.4,0.7,0.7v-0.9h0.5v4.2h-0.5v-0.9c-0.1,0.3-0.4,0.5-0.7,0.7c-0.3,0.2-0.6,0.3-1,0.3C59.7,22.2,59.2,22,58.8,21.6z
	 M61.4,21.3c0.6-0.7,0.6-1.8,0-2.5c-0.3-0.3-0.7-0.5-1.1-0.5c-0.4,0-0.8,0.2-1.1,0.5c-0.3,0.3-0.5,0.8-0.4,1.2
	c0,0.5,0.1,0.9,0.5,1.3C59.8,21.9,60.8,21.9,61.4,21.3C61.4,21.3,61.4,21.3,61.4,21.3L61.4,21.3z"/>
<path class="st1" d="M65.5,18.3h-1.2v2.8c0,0.2,0,0.3,0.1,0.4c0.1,0.1,0.3,0.1,0.4,0.1h0.6v0.4h-0.7c-0.5,0.1-0.9-0.3-1-0.7
	c0-0.1,0-0.2,0-0.3v-2.8h-0.6v-0.4h0.6v-1.1h0.5v1.1h1.2L65.5,18.3z"/>
</svg>
