<svg xmlns="http://www.w3.org/2000/svg" viewBox="0 0 23.7 22.94"><defs><style>.cls-1{fill:#7f47dd;}.cls-2{fill:#fff;}.cls-3{fill:#a279e6;}</style></defs><title>LOGO_PGM_KLEIN_PAARS</title><g id="Laag_2" data-name="Laag 2"><g id="Laag_1-2" data-name="Laag 1"><path class="cls-1" d="M10.58,5.71l5.25,3h0l1.63-.88h0L17.54,2ZM4.16,10.64V9.14L1.25,10.71l-.06,5.81,3.86-2.06h0l3-1.61h0Z"/><path class="cls-2" d="M18.66,7.15,18.73,0,9.36,5,4.24,2.15l0,5.65L.08,10,0,18.49l5-2.7L5,22.94l10.79-5.78L22.6,21l.08-7.56.94-.5v-.35l.08-8.14ZM17.54,2l-.06,5.81h0l-1.63.88h0l-5.25-3ZM5.35,8.51V7.17l0-3L8.13,5.68h0l1.21.68,5.27,3L9.29,12.18,5.34,10Zm-.3,6L1.19,16.52l.06-5.81L4.17,9.14v1.5l3.9,2.19h0l-3,1.61ZM21.45,19,17,16.5l4.52-2.42Zm1-6.78-.13.07L21.1,13l-5.33,2.86-1.22.66h0L6.16,21l.06-5.82L8.5,13.93l.77-.41h0l1.22-.66L15.83,10l1.22-.65h0l1.59-.85,3.86-2.07Z"/><polygon class="cls-2" points="9.35 6.36 5.35 8.51 5.36 7.17 8.13 5.68 8.14 5.68 9.35 6.36"/><polygon class="cls-2" points="5.05 14.45 5.05 14.46 1.19 16.52 5.05 14.45"/><polygon class="cls-2" points="17.48 7.79 15.85 8.67 15.84 8.67 15.84 8.66 17.48 7.79"/><path class="cls-1" d="M5.39,4.14l0,3L8.13,5.68ZM17,16.5,21.45,19l.05-4.93Z"/><polygon class="cls-1" points="14.62 9.32 9.29 12.18 5.34 9.96 5.35 8.51 9.35 6.36 14.62 9.32"/><path class="cls-3" d="M8.14,5.68h0L5.36,7.17V8.51l4-2.15Z"/><polygon class="cls-2" points="15.84 8.66 15.84 8.67 15.83 8.67 10.58 5.71 15.84 8.66"/><polygon class="cls-2" points="15.77 15.82 14.55 16.48 14.54 16.48 9.28 13.52 10.5 12.86 15.77 15.82"/><polygon class="cls-2" points="22.32 12.3 21.1 12.96 15.83 10 17.05 9.35 17.06 9.35 22.32 12.3"/><path class="cls-1" d="M18.65,8.49l-1.59.85h0l5.26,3,.13-.07.06-5.81Zm-9.37,5h0l-.77.41L6.22,15.16,6.16,21l8.38-4.5Z"/><polygon class="cls-1" points="21.1 12.96 15.77 15.82 10.5 12.86 15.83 10 21.1 12.96"/><path class="cls-3" d="M10.5,12.86l-1.22.66,5.26,3h0l1.22-.66Zm6.56-3.51h0L15.83,10l5.27,3,1.22-.66Z"/><path class="cls-2" d="M15.84,8.66h0l1.63-.88Z"/></g></g></svg>