<svg xmlns="http://www.w3.org/2000/svg" viewBox="0 0 136.85 48.5"><defs><style>.cls-1{fill:#7f47dd;}.cls-2{fill:#fff;}.cls-3{fill:#a279e6;}.cls-4{fill:none;}</style></defs><title>LOGO_GRADUAAT_PROGRAMMERENMiddel 38PAARS</title><g id="Laag_2" data-name="Laag 2"><g id="Laag_1-2" data-name="Laag 1"><path class="cls-1" d="M22.12,18.84l5.25,3h0L29,20.92h0l.06-5.81ZM15.7,23.77v-1.5l-2.92,1.57-.06,5.81,3.86-2.06h0l3-1.61h0Z"/><path class="cls-2" d="M30.2,20.28l.07-7.15-9.37,5-5.12-2.87,0,5.65-4.11,2.2-.08,8.49,5-2.7-.07,7.15L27.3,30.29l6.84,3.84.08-7.56.94-.5v-.35l.08-8.14ZM29.08,15.1,29,20.91h0l-1.63.88h0l-5.25-3ZM16.89,21.64V20.3l0-3,2.74,1.54h0l1.21.68,5.27,3-5.33,2.86-3.95-2.22Zm-.3,5.95-3.86,2.06.06-5.81,2.92-1.57v1.5L19.6,26h0l-3,1.61ZM33,32.14l-4.47-2.51L33,27.21Zm1-6.78-.13.07-1.22.66L27.31,29l-1.22.66h0l-8.38,4.5.06-5.82L20,27.06l.77-.41h0L22,26l5.33-2.86,1.22-.65h0l1.59-.85,3.86-2.07Z"/><polygon class="cls-2" points="20.89 19.49 16.89 21.64 16.9 20.3 19.67 18.81 19.68 18.81 20.89 19.49"/><polygon class="cls-2" points="16.59 27.58 16.59 27.59 12.73 29.65 16.59 27.58"/><polygon class="cls-2" points="29.02 20.92 27.39 21.8 27.38 21.8 27.38 21.79 29.02 20.92"/><path class="cls-1" d="M16.93,17.27l0,3,2.77-1.49ZM28.52,29.63,33,32.14l0-4.93Z"/><polygon class="cls-1" points="26.16 22.45 20.83 25.31 16.88 23.09 16.89 21.64 20.89 19.49 26.16 22.45"/><path class="cls-3" d="M19.68,18.81h0L16.9,20.3v1.34l4-2.15Z"/><polygon class="cls-2" points="27.38 21.79 27.38 21.8 27.37 21.8 22.12 18.84 27.38 21.79"/><polygon class="cls-2" points="27.31 28.95 26.09 29.61 26.08 29.61 20.82 26.65 22.04 25.99 27.31 28.95"/><polygon class="cls-2" points="33.86 25.43 32.64 26.09 27.37 23.13 28.59 22.48 28.6 22.48 33.86 25.43"/><path class="cls-1" d="M30.19,21.62l-1.59.85h0l5.26,2.95.13-.07.06-5.81Zm-9.37,5h0l-.77.41-2.28,1.23-.06,5.82,8.38-4.5Z"/><polygon class="cls-1" points="32.64 26.09 27.31 28.95 22.04 25.99 27.37 23.13 32.64 26.09"/><path class="cls-3" d="M22,26l-1.22.66,5.26,3h0L27.31,29Zm6.56-3.51h0l-1.22.65,5.27,3,1.22-.66Z"/><path class="cls-2" d="M27.38,21.79h0L29,20.92Z"/><rect class="cls-4" width="136.85" height="48.5"/><path class="cls-2" d="M47.14,26A2.36,2.36,0,0,1,48,27,3.82,3.82,0,0,1,48,30a2.36,2.36,0,0,1-.86,1,2.21,2.21,0,0,1-1.24.35,2.08,2.08,0,0,1-1.11-.29,1.71,1.71,0,0,1-.68-.8V34H42.39v-8.3h1.72v1a1.71,1.71,0,0,1,.68-.8,2.08,2.08,0,0,1,1.11-.29A2.3,2.3,0,0,1,47.14,26Zm-2.69,1.53a1.4,1.4,0,0,0-.35,1,1.42,1.42,0,0,0,.35,1,1.27,1.27,0,0,0,1.78,0,1.4,1.4,0,0,0,.34-1,1.42,1.42,0,0,0-.34-1,1.27,1.27,0,0,0-1.78,0Z"/><path class="cls-2" d="M51.77,25.91a2.14,2.14,0,0,1,1.1-.3v1.84h-.49a1.65,1.65,0,0,0-1.06.3,1.13,1.13,0,0,0-.38,1v2.56H49.22V25.67h1.72v1.06A2.41,2.41,0,0,1,51.77,25.91Z"/><path class="cls-2" d="M57.72,26a2.5,2.5,0,0,1,1,1,3.27,3.27,0,0,1,0,3.06,2.5,2.5,0,0,1-1,1,3.37,3.37,0,0,1-3,0,2.53,2.53,0,0,1-1-1,3.35,3.35,0,0,1,0-3.06,2.53,2.53,0,0,1,1-1,3.37,3.37,0,0,1,3,0Zm-2.32,1.5a1.73,1.73,0,0,0,0,2.06,1.11,1.11,0,0,0,.83.35,1.09,1.09,0,0,0,.82-.35,1.77,1.77,0,0,0,0-2.06,1.06,1.06,0,0,0-.82-.36A1.08,1.08,0,0,0,55.4,27.45Z"/><path class="cls-2" d="M63.27,25.89a1.79,1.79,0,0,1,.69.8v-1h1.71v5.59a3.28,3.28,0,0,1-.3,1.42,2.35,2.35,0,0,1-.93,1,2.94,2.94,0,0,1-1.55.37,3.2,3.2,0,0,1-2-.6A2.46,2.46,0,0,1,60,31.82h1.7a.9.9,0,0,0,.37.54,1.3,1.3,0,0,0,.75.19,1.18,1.18,0,0,0,.86-.31,1.27,1.27,0,0,0,.33-1v-1a1.79,1.79,0,0,1-.69.8,2,2,0,0,1-1.1.29A2.22,2.22,0,0,1,60.92,31a2.36,2.36,0,0,1-.86-1,3.82,3.82,0,0,1,0-3.06,2.36,2.36,0,0,1,.86-1,2.31,2.31,0,0,1,1.25-.35A2,2,0,0,1,63.27,25.89Zm-1.44,1.58a1.42,1.42,0,0,0-.34,1,1.4,1.4,0,0,0,.34,1,1.27,1.27,0,0,0,1.78,0,1.42,1.42,0,0,0,.35-1,1.4,1.4,0,0,0-.35-1,1.27,1.27,0,0,0-1.78,0Z"/><path class="cls-2" d="M69.41,25.91a2.14,2.14,0,0,1,1.1-.3v1.84H70a1.65,1.65,0,0,0-1.06.3,1.16,1.16,0,0,0-.38,1v2.56H66.86V25.67h1.72v1.06A2.5,2.5,0,0,1,69.41,25.91Z"/><path class="cls-2" d="M74.48,25.89a1.79,1.79,0,0,1,.69.8v-1h1.71v5.62H75.17v-1a1.79,1.79,0,0,1-.69.8,2.08,2.08,0,0,1-1.11.29A2.21,2.21,0,0,1,72.13,31a2.38,2.38,0,0,1-.87-1,3.93,3.93,0,0,1,0-3.06,2.38,2.38,0,0,1,.87-1,2.3,2.3,0,0,1,1.24-.35A2.08,2.08,0,0,1,74.48,25.89ZM73,27.47a1.42,1.42,0,0,0-.34,1,1.4,1.4,0,0,0,.34,1,1.27,1.27,0,0,0,1.78,0,1.42,1.42,0,0,0,.35-1,1.4,1.4,0,0,0-.35-1,1.27,1.27,0,0,0-1.78,0Z"/><path class="cls-2" d="M87,26.25A2.5,2.5,0,0,1,87.57,28v3.26H85.86V28.23a1.15,1.15,0,0,0-.29-.83,1,1,0,0,0-.78-.3,1.07,1.07,0,0,0-.81.32,1.29,1.29,0,0,0-.29.89v3H82V28.23a1.14,1.14,0,0,0-.28-.83,1,1,0,0,0-.77-.3,1.11,1.11,0,0,0-.82.31,1.25,1.25,0,0,0-.3.9v3H78.07V25.67h1.72v1a1.65,1.65,0,0,1,.68-.75,2,2,0,0,1,1.07-.27,2.16,2.16,0,0,1,1.14.3,1.81,1.81,0,0,1,.74.85,2.33,2.33,0,0,1,.81-.84,2.14,2.14,0,0,1,1.12-.31A2.11,2.11,0,0,1,87,26.25Z"/><path class="cls-2" d="M97.63,26.25a2.51,2.51,0,0,1,.6,1.78v3.26H96.51V28.23a1.14,1.14,0,0,0-.28-.83,1,1,0,0,0-.78-.3,1.05,1.05,0,0,0-.81.32,1.24,1.24,0,0,0-.3.89v3H92.62V28.23a1.19,1.19,0,0,0-.28-.83,1,1,0,0,0-.78-.3,1.14,1.14,0,0,0-.82.31,1.25,1.25,0,0,0-.3.9v3H88.72V25.67h1.72v1a1.7,1.7,0,0,1,.68-.75,2.29,2.29,0,0,1,2.21,0,1.89,1.89,0,0,1,.75.85,2.22,2.22,0,0,1,.8-.84A2.17,2.17,0,0,1,96,25.61,2.1,2.1,0,0,1,97.63,26.25Z"/><path class="cls-2" d="M104.66,28.79h-3.9a1.25,1.25,0,0,0,.33.91,1,1,0,0,0,.74.28,1,1,0,0,0,.64-.19,1,1,0,0,0,.33-.49h1.82a2.33,2.33,0,0,1-.48,1.06,2.55,2.55,0,0,1-1,.73,3,3,0,0,1-1.28.27,2.9,2.9,0,0,1-1.46-.35,2.41,2.41,0,0,1-1-1,3,3,0,0,1-.37-1.53A3.09,3.09,0,0,1,99.44,27a2.41,2.41,0,0,1,1-1,3.07,3.07,0,0,1,1.47-.35,3.13,3.13,0,0,1,1.47.34,2.39,2.39,0,0,1,1,1,2.81,2.81,0,0,1,.35,1.43A2.58,2.58,0,0,1,104.66,28.79Zm-2-1.55a1.07,1.07,0,0,0-.76-.28,1.1,1.1,0,0,0-.78.28,1.21,1.21,0,0,0-.36.83H103A1,1,0,0,0,102.67,27.24Z"/><path class="cls-2" d="M108.16,25.91a2.14,2.14,0,0,1,1.1-.3v1.84h-.49a1.65,1.65,0,0,0-1.06.3,1.16,1.16,0,0,0-.38,1v2.56h-1.72V25.67h1.72v1.06A2.5,2.5,0,0,1,108.16,25.91Z"/><path class="cls-2" d="M115.27,28.79h-3.89a1.25,1.25,0,0,0,.32.91,1.14,1.14,0,0,0,1.38.09.87.87,0,0,0,.33-.49h1.82a2.33,2.33,0,0,1-.48,1.06,2.47,2.47,0,0,1-1,.73,3.2,3.2,0,0,1-2.74-.08,2.41,2.41,0,0,1-1-1,3.47,3.47,0,0,1,0-3.06,2.43,2.43,0,0,1,1-1,3,3,0,0,1,1.47-.35,3.11,3.11,0,0,1,1.46.34,2.41,2.41,0,0,1,1,1,2.91,2.91,0,0,1,.34,1.43A1.9,1.9,0,0,1,115.27,28.79Zm-2-1.55a1.08,1.08,0,0,0-.76-.28,1.12,1.12,0,0,0-.79.28,1.16,1.16,0,0,0-.35.83h2.19A1,1,0,0,0,113.29,27.24Z"/><path class="cls-2" d="M121.32,26.26a2.56,2.56,0,0,1,.57,1.77v3.26h-1.72V28.23a1.22,1.22,0,0,0-.3-.88,1,1,0,0,0-.79-.32,1.08,1.08,0,0,0-.83.33,1.37,1.37,0,0,0-.31.95v3h-1.72V25.67h1.72v1a1.86,1.86,0,0,1,.72-.8,2.18,2.18,0,0,1,1.13-.29A1.94,1.94,0,0,1,121.32,26.26Z"/><path class="cls-2" d="M42.47,21.58a2.29,2.29,0,0,1-.58-1.6,2.11,2.11,0,0,1,.58-1.56,1.93,1.93,0,0,1,1.46-.6,1.89,1.89,0,0,1,1,.28,1.77,1.77,0,0,1,.64.72V17.9h.54v4.37a1.81,1.81,0,0,1-.57,1.39,1.93,1.93,0,0,1-1.38.54,2.33,2.33,0,0,1-1.39-.41,1.44,1.44,0,0,1-.65-1h.54a1.08,1.08,0,0,0,.51.66,1.76,1.76,0,0,0,1,.27,1.38,1.38,0,0,0,1-.39,1.42,1.42,0,0,0,.4-1.07V21.2a1.77,1.77,0,0,1-.64.72,1.81,1.81,0,0,1-1,.28A1.94,1.94,0,0,1,42.47,21.58Zm2.65-.32a1.93,1.93,0,0,0,0-2.5,1.56,1.56,0,0,0-2.22,0A1.66,1.66,0,0,0,42.45,20a1.77,1.77,0,0,0,.46,1.27,1.5,1.5,0,0,0,2.21,0Z"/><path class="cls-2" d="M47.82,17.9v.7a1.31,1.31,0,0,1,1.31-.78v.57H49a1.15,1.15,0,0,0-.86.3,1.45,1.45,0,0,0-.3,1v2.39h-.54V17.9Z"/><path class="cls-2" d="M50.32,21.58a2.25,2.25,0,0,1-.58-1.6,2.11,2.11,0,0,1,.58-1.56,1.93,1.93,0,0,1,1.46-.6,1.89,1.89,0,0,1,1,.28,1.77,1.77,0,0,1,.64.72V17.9H54v4.22h-.54V21.2a1.77,1.77,0,0,1-.64.72,1.81,1.81,0,0,1-1,.28A1.93,1.93,0,0,1,50.32,21.58ZM53,21.26a1.93,1.93,0,0,0,0-2.5,1.56,1.56,0,0,0-2.22,0A1.66,1.66,0,0,0,50.3,20a1.77,1.77,0,0,0,.46,1.27,1.46,1.46,0,0,0,1.1.49A1.49,1.49,0,0,0,53,21.26Z"/><path class="cls-2" d="M55.44,21.58a2.25,2.25,0,0,1-.58-1.6,2.11,2.11,0,0,1,.58-1.56,1.93,1.93,0,0,1,1.46-.6,1.89,1.89,0,0,1,1,.28,1.84,1.84,0,0,1,.64.72V16.4h.54v5.72h-.54V21.2a1.84,1.84,0,0,1-.64.72,1.81,1.81,0,0,1-1,.28A1.93,1.93,0,0,1,55.44,21.58Zm2.65-.32a1.93,1.93,0,0,0,0-2.5,1.56,1.56,0,0,0-2.22,0A1.66,1.66,0,0,0,55.42,20a1.77,1.77,0,0,0,.46,1.27,1.46,1.46,0,0,0,1.1.49A1.49,1.49,0,0,0,58.09,21.26Z"/><path class="cls-2" d="M63.26,17.9h.54v4.22h-.54v-.68a1.48,1.48,0,0,1-1.4.76,1.62,1.62,0,0,1-1.18-.46,1.79,1.79,0,0,1-.47-1.32V17.9h.53v2.41a1.51,1.51,0,0,0,.34,1.06,1.18,1.18,0,0,0,.92.37,1.16,1.16,0,0,0,.92-.37,1.47,1.47,0,0,0,.34-1.06Z"/><path class="cls-2" d="M65.27,21.58a2.25,2.25,0,0,1-.58-1.6,2.14,2.14,0,0,1,.57-1.56,2,2,0,0,1,1.47-.6,1.83,1.83,0,0,1,1,.28,1.79,1.79,0,0,1,.65.72V17.9h.54v4.22h-.54V21.2a1.79,1.79,0,0,1-.65.72,1.75,1.75,0,0,1-1,.28A1.91,1.91,0,0,1,65.27,21.58Zm2.65-.32a1.93,1.93,0,0,0,0-2.5,1.52,1.52,0,0,0-1.11-.47,1.48,1.48,0,0,0-1.11.46A1.67,1.67,0,0,0,65.24,20a1.82,1.82,0,0,0,.46,1.27,1.51,1.51,0,0,0,2.22,0Z"/><path class="cls-2" d="M70.39,21.58a2.25,2.25,0,0,1-.58-1.6,2.14,2.14,0,0,1,.57-1.56,2,2,0,0,1,1.47-.6,1.85,1.85,0,0,1,1,.28,1.79,1.79,0,0,1,.65.72V17.9H74v4.22H73.5V21.2a1.79,1.79,0,0,1-.65.72,1.77,1.77,0,0,1-1,.28A1.91,1.91,0,0,1,70.39,21.58ZM73,21.26a1.93,1.93,0,0,0,0-2.5,1.52,1.52,0,0,0-1.11-.47,1.48,1.48,0,0,0-1.11.46A1.67,1.67,0,0,0,70.36,20a1.82,1.82,0,0,0,.46,1.27,1.51,1.51,0,0,0,2.22,0Z"/><path class="cls-2" d="M77.08,18.33H75.91v2.8a.63.63,0,0,0,.12.44.58.58,0,0,0,.44.13h.61v.42h-.72a.88.88,0,0,1-1-1v-2.8h-.59V17.9h.59V16.84h.54V17.9h1.17Z"/></g></g></svg>